<svg version="1.1" id="Layer_1" xmlns="http://www.w3.org/2000/svg" xmlns:xlink="http://www.w3.org/1999/xlink" x="0px" y="0px"
	 width="100%" viewBox="0 0 612 612" enable-background="new 0 0 612 612" xml:space="preserve">
<path fill="#F2F2F2" opacity="1.000000" stroke="none" 
	d="
M294.000000,613.000000 
	C196.000015,613.000000 98.500038,613.000000 1.000039,613.000000 
	C1.000026,409.000061 1.000026,205.000107 1.000013,1.000121 
	C204.999924,1.000081 408.999847,1.000081 612.999817,1.000041 
	C612.999878,204.999878 612.999878,408.999756 612.999939,612.999817 
	C506.833344,613.000000 400.666656,613.000000 294.000000,613.000000 
M518.109375,411.455383 
	C517.854736,411.208069 517.600098,410.960724 517.259888,410.815948 
	C517.259888,410.815948 517.392700,410.830261 517.397156,410.166046 
	C516.938965,409.431366 516.480774,408.696716 516.002014,407.983948 
	C516.002014,407.983948 516.032837,407.979858 515.967773,407.328735 
	C515.333679,406.213898 514.699524,405.099060 514.009338,403.387177 
	C513.503906,402.540314 512.998535,401.693420 512.330933,400.231232 
	C511.947693,399.745300 511.564453,399.259369 511.145203,398.908600 
	C511.145203,398.908600 511.284576,398.897400 511.241455,398.265045 
	C510.896973,397.765564 510.552521,397.266083 510.195038,396.894226 
	C510.195038,396.894226 510.315796,396.850891 510.234192,396.128967 
	C508.904846,393.611877 507.575500,391.094818 506.173584,387.972107 
	C505.563141,386.947327 504.952698,385.922577 504.195953,384.291626 
	C503.838806,383.811005 503.481659,383.330383 503.123871,382.938812 
	C503.123871,382.938812 503.207977,382.909546 503.185699,382.345093 
	C502.900330,381.884644 502.614990,381.424164 502.176514,380.264160 
	C500.871674,377.850433 499.566803,375.436676 498.150208,372.352844 
	C497.484894,371.215546 496.819550,370.078247 496.050751,368.245697 
	C495.167603,366.599091 494.284485,364.952484 493.215515,362.619202 
	C492.114899,359.000763 490.010681,357.645782 485.932556,357.777802 
	C474.469025,358.148895 462.985687,357.907227 451.510162,357.907166 
	C448.634918,357.907166 445.759705,357.907166 441.984711,357.907166 
	C443.960480,361.586212 445.426300,364.315674 446.918335,367.701660 
	C447.347198,368.457611 447.776093,369.213562 448.309814,370.612000 
	C449.133667,372.114319 449.957520,373.616638 450.884064,375.825867 
	C452.214447,378.314880 453.544861,380.803894 454.870636,383.896271 
	C455.211517,384.353882 455.552399,384.811462 456.080780,385.905090 
	C456.741821,387.275055 457.402863,388.645050 458.142151,390.718750 
	C459.764252,393.804413 461.386353,396.890106 463.035797,400.651550 
	C463.619507,401.597382 464.203186,402.543243 464.799408,404.128113 
	C465.498932,405.438599 466.198456,406.749054 466.959991,408.740448 
	C467.704163,410.146820 468.448303,411.553192 469.304626,413.631561 
	C470.492798,415.772003 471.680969,417.912445 472.853638,420.658203 
	C472.926300,421.055237 472.998993,421.452301 473.036407,422.421387 
	C473.031097,422.612335 473.025787,422.803314 473.613831,423.576263 
	C488.832397,423.694885 504.050934,423.823334 519.269714,423.894012 
	C519.839844,423.896667 520.412598,423.338318 521.363403,422.910645 
	C521.617737,422.801117 521.814880,422.626923 522.434265,421.914917 
	C521.933105,420.361847 521.432007,418.808746 520.846497,416.702271 
	C520.429810,416.098175 520.013123,415.494049 519.495605,414.235352 
	C519.106140,413.734100 518.716736,413.232819 518.444641,412.756561 
	C518.444641,412.756561 518.475586,412.640625 518.485413,412.248474 
	C518.485413,412.248474 518.179443,412.003082 518.109375,411.455383 
M313.079132,420.131958 
	C313.079132,420.131958 313.103882,420.227173 313.782593,420.193207 
	C314.981171,419.593140 316.179749,418.993073 318.052856,418.277405 
	C320.074158,417.071503 322.095459,415.865631 324.790100,414.545624 
	C325.281128,414.107635 325.772156,413.669647 326.314789,413.273956 
	C326.314789,413.273956 326.378754,413.292877 327.025726,413.193939 
	C328.713715,411.900909 330.401733,410.607910 332.729950,409.107178 
	C334.167480,407.771820 335.604980,406.436432 337.605042,404.873322 
	C337.925873,404.394623 338.246704,403.915924 338.545868,403.520172 
	C338.545868,403.520172 338.631561,403.517029 339.246643,403.307190 
	C340.838348,401.051819 342.430054,398.796448 344.585663,396.299438 
	C347.336670,391.867981 350.087708,387.436493 352.961761,383.062164 
	C352.961761,383.062164 353.029449,382.944580 353.511993,382.974396 
	C353.791779,382.743591 353.886841,382.452454 354.203949,381.531494 
	C354.770966,380.023529 355.337982,378.515564 356.344452,376.519135 
	C356.549988,375.681458 356.755524,374.843811 357.353638,373.427460 
	C357.620697,372.307281 357.887726,371.187103 358.582703,369.489258 
	C358.915802,368.100128 359.248901,366.711029 359.875336,364.627228 
	C360.273651,362.542572 360.671967,360.457886 361.100586,358.214661 
	C346.655670,358.214661 332.583435,358.214661 318.429810,358.214661 
	C318.118683,359.963562 317.859314,361.421661 317.157043,363.416351 
	C316.648682,365.243256 316.140320,367.070129 315.148956,369.288422 
	C314.724701,370.450043 314.300446,371.611664 313.340485,373.205963 
	C312.764526,374.428467 312.188568,375.650940 311.039246,377.139343 
	C309.323273,379.344269 307.607300,381.549194 305.300262,384.021332 
	C304.195465,385.018494 303.090668,386.015656 301.312714,387.168549 
	C298.676270,388.737305 296.039795,390.306030 293.181244,391.772217 
	C293.181244,391.772217 293.018524,391.954926 292.331573,391.963379 
	C291.733704,392.269012 291.135864,392.574677 289.748718,392.843933 
	C279.432220,395.411285 269.155579,395.911896 258.401093,391.898926 
	C257.964355,391.854980 257.527588,391.811066 257.079437,391.877411 
	C257.079437,391.877411 257.187592,391.852905 256.822296,391.272491 
	C254.589752,389.782043 252.357208,388.291595 249.869064,386.230011 
	C249.012497,385.772491 248.155914,385.314972 247.266571,384.186462 
	C246.575745,383.104706 245.884933,382.022949 245.058212,380.373901 
	C244.772415,380.131287 244.486618,379.888641 244.209610,379.855133 
	C244.209610,379.855133 244.407898,379.788086 244.256607,379.065918 
	C242.492310,375.733246 240.728012,372.400574 239.037460,368.212189 
	C238.795792,365.774841 238.554123,363.337463 238.445221,360.001282 
	C237.074692,359.304901 235.718307,358.040588 234.331284,358.005981 
	C226.404724,357.808289 218.470886,357.902130 210.539520,357.899109 
	C205.328049,357.897095 200.116577,357.898712 194.616409,357.898712 
	C194.834610,360.068298 194.981705,361.530975 195.012238,363.826752 
	C195.561111,366.785828 196.109970,369.744873 196.600204,373.289795 
	C196.789108,373.847076 196.978012,374.404388 197.087891,375.607025 
	C197.397354,376.399445 197.706802,377.191895 197.973694,378.742096 
	C199.265335,381.588898 200.556992,384.435699 202.072601,387.950226 
	C203.292175,390.357880 204.511765,392.765533 205.807983,395.135895 
	C205.807983,395.135895 205.734726,395.093140 205.845230,395.687592 
	C206.222717,396.131195 206.600189,396.574799 207.104645,397.691772 
	C209.430618,400.448730 211.756577,403.205658 214.320847,406.568359 
	C215.906555,408.038910 217.492264,409.509491 219.367416,411.574829 
	C223.901657,414.437531 228.435898,417.300232 233.367630,420.650635 
	C234.744217,421.154388 236.120819,421.658142 238.038620,422.693115 
	C260.638885,431.008820 283.278625,429.617432 306.649292,422.959320 
	C307.896271,422.349915 309.143250,421.740509 310.389374,421.051208 
	C310.389374,421.051208 310.463074,421.088837 310.772400,421.232971 
	C310.772400,421.232971 311.014832,420.992828 311.635590,421.012451 
	C312.149353,420.722809 312.663086,420.433197 313.079132,420.131958 
M361.625885,423.588837 
	C374.215149,423.720062 386.804382,423.855743 399.393921,423.941132 
	C399.586365,423.942413 399.782959,423.322021 399.987793,422.519684 
	C399.987793,422.519684 400.006531,422.047821 400.501373,421.696991 
	C400.573334,421.115112 400.645325,420.533264 400.919037,419.184021 
	C401.164551,417.126495 401.410065,415.068939 401.918671,412.243103 
	C401.968018,411.167297 402.017334,410.091492 402.452637,408.484070 
	C402.522552,407.620789 402.592468,406.757477 402.922150,405.154633 
	C403.188263,403.086761 403.454407,401.018921 403.950134,398.225098 
	C404.177368,396.486786 404.404633,394.748505 404.911285,392.267273 
	C404.964813,390.709381 405.018341,389.151459 405.661285,386.997772 
	C406.027740,384.319824 406.394226,381.641846 406.971191,378.187927 
	C407.117554,376.862549 407.263916,375.537170 407.749634,373.536682 
	C408.046204,371.011230 408.342773,368.485809 408.908752,365.172668 
	C409.239777,362.927368 409.570770,360.682068 409.925537,358.275787 
	C395.140869,358.275787 380.695709,358.275787 366.241821,358.275787 
	C365.890381,361.087433 365.584045,363.538055 365.020538,366.753632 
	C364.734039,369.163452 364.447540,371.573273 363.912811,374.734100 
	C363.790436,375.778839 363.668060,376.823547 363.223938,378.484009 
	C363.204803,380.645599 363.185699,382.807220 363.009216,385.710327 
	C362.620270,387.124146 362.231323,388.537994 361.424561,390.607941 
	C360.939301,394.734528 360.454041,398.861115 359.642395,403.600983 
	C359.611328,404.058411 359.580292,404.515839 359.214569,405.568207 
	C359.148071,406.713440 359.081543,407.858673 358.598785,409.629272 
	C358.419464,411.406128 358.240143,413.182983 357.812988,415.584686 
	C357.791260,416.030884 357.769531,416.477051 357.300415,417.498016 
	C357.544434,419.077545 357.788452,420.657043 358.510071,422.658264 
	C359.348236,422.779114 360.186401,422.899933 361.625885,423.588837 
M481.084412,332.372498 
	C480.200745,330.591644 479.072113,328.888245 478.479828,327.015259 
	C476.778015,321.633820 473.439545,320.130737 467.734406,320.194427 
	C437.353821,320.533600 406.967438,320.352173 376.583038,320.350952 
	C374.794434,320.350861 373.005798,320.350952 370.933136,320.350952 
	C370.334900,324.882568 369.795654,328.967651 369.007385,333.832764 
	C368.142609,339.641632 367.277832,345.450500 366.397797,351.361938 
	C408.093048,351.361938 449.054321,351.361938 490.955750,351.361938 
	C487.435242,344.823090 484.252319,338.911255 481.084412,332.372498 
M193.516876,333.465942 
	C193.516876,333.465942 193.249619,333.676758 192.300262,333.494659 
	C141.896561,333.440125 91.492859,333.385590 41.089149,333.348633 
	C41.077724,333.348602 41.066105,333.615417 41.043850,333.889893 
	C41.769047,334.172729 42.505440,334.580078 43.293011,334.749481 
	C60.683491,338.490051 78.065338,342.273010 95.480232,345.897034 
	C105.388374,347.958893 115.325264,351.220123 125.295975,351.403900 
	C161.402985,352.069458 197.529785,351.664917 233.649109,351.644135 
	C235.060852,351.643311 236.472443,351.437042 237.917984,351.323853 
	C238.207718,345.202423 238.474136,339.573364 239.039200,333.217194 
	C239.687180,329.081390 240.335159,324.945587 240.993423,320.744202 
	C225.931946,320.744202 211.772568,320.744202 197.444122,320.744202 
	C196.801163,325.182220 196.209579,329.265656 194.694016,333.410980 
	C194.396179,333.492035 194.098328,333.573090 193.516876,333.465942 
M97.291992,315.060425 
	C98.349312,315.372070 99.406181,315.954224 100.464027,315.955963 
	C130.081253,316.005157 159.698654,316.015472 189.315704,315.925110 
	C190.535736,315.921387 191.752640,314.882599 193.893112,314.130493 
	C209.598877,314.198425 225.304657,314.266357 241.284988,315.054504 
	C242.508728,315.368378 243.732147,315.955109 244.956238,315.956573 
	C284.910278,316.004547 324.864410,316.013062 364.818329,315.925720 
	C366.204437,315.922699 367.588257,314.879913 369.895050,314.126678 
	C404.646942,314.126678 439.398834,314.126678 474.168732,314.126678 
	C473.979370,307.642975 465.516998,303.543579 470.658752,296.231018 
	C317.627533,296.231018 164.992783,296.231018 12.358036,296.231018 
	C24.220476,299.371674 36.179455,301.996918 48.170330,304.467377 
	C64.443123,307.820007 80.740326,311.054230 97.291992,315.060425 
M483.139893,204.597229 
	C467.805695,226.787842 452.493561,248.993805 437.083313,271.131470 
	C436.144958,272.479431 434.503418,274.058807 433.060181,274.198425 
	C428.828735,274.607849 424.532166,274.344208 419.781860,274.344208 
	C424.225525,244.581070 428.566254,215.507172 432.960938,186.072174 
	C418.223358,186.072174 403.827057,186.072174 389.205780,186.072174 
	C384.028290,220.635056 378.891174,254.928406 373.715820,289.477142 
	C375.243378,289.640289 376.046387,289.800629 376.849457,289.801056 
	C407.346313,289.817719 437.843567,289.876801 468.339203,289.685516 
	C470.225189,289.673676 472.652618,288.112030 473.896393,286.536102 
	C499.483521,254.115845 524.937622,221.590607 550.399353,189.071548 
	C551.043884,188.248337 551.476501,187.259155 552.331299,185.792480 
	C533.828613,185.792480 516.022034,185.738373 498.217438,185.903900 
	C496.912537,185.916031 495.254089,187.245682 494.389191,188.424438 
	C490.647491,193.523895 487.139862,198.795074 483.139893,204.597229 
M251.938522,253.603088 
	C252.642303,252.094421 253.286224,250.554367 254.058899,249.081863 
	C264.376099,229.420609 280.127075,216.107697 305.591736,219.853012 
	C321.803040,222.237350 330.093262,230.130249 331.320099,246.401505 
	C331.665527,250.982666 331.372864,255.611923 331.372864,260.713959 
	C344.527405,260.713959 357.651825,260.783478 370.772034,260.580688 
	C371.811554,260.564606 373.557373,258.773926 373.737885,257.615234 
	C378.002899,230.237671 369.812683,205.198730 340.129669,192.962555 
	C314.080627,182.224411 287.188171,182.423065 261.329987,193.580887 
	C229.412827,207.353149 211.591110,233.076202 204.156601,266.429077 
	C202.480438,273.948730 201.586105,281.642700 200.292679,289.494385 
	C215.369095,289.494385 229.453842,289.494385 242.598007,289.494385 
	C245.704529,277.405823 248.672974,265.854584 251.938522,253.603088 
M280.500000,294.003662 
	C193.131805,294.003662 105.763596,294.003662 18.395395,294.003662 
	C18.396095,294.240326 18.396793,294.477020 18.397491,294.713684 
	C166.865799,294.713684 315.334106,294.713684 463.802399,294.713684 
	C463.802643,294.477020 463.802856,294.240326 463.803070,294.003662 
	C403.035370,294.003662 342.267700,294.003662 280.500000,294.003662 
M346.494629,346.807526 
	C338.514557,346.807373 330.533020,346.897430 322.555084,346.766754 
	C318.892395,346.706787 318.416473,348.336487 319.474457,351.709869 
	C332.689117,351.709869 345.803680,351.803467 358.911560,351.549683 
	C360.084991,351.526947 361.214844,349.252838 362.364929,348.024323 
	C362.037598,347.618866 361.710266,347.213440 361.382935,346.808014 
	C356.752441,346.808014 352.121948,346.808014 346.494629,346.807526 
M19.458342,290.012299 
	C19.010296,290.142120 18.562250,290.271942 17.284384,290.642212 
	C77.628433,290.642212 137.115036,290.642212 196.601654,290.642212 
	C196.601517,290.430023 196.601379,290.217834 196.601227,290.005646 
	C137.820816,290.005646 79.040405,290.005646 19.458342,290.012299 
M321.500000,290.004883 
	C296.794708,290.004883 272.089386,290.004883 247.384094,290.004883 
	C247.386566,290.243622 247.389038,290.482330 247.391525,290.721069 
	C288.528931,290.721069 329.666351,290.721069 370.803772,290.721069 
	C370.804657,290.482330 370.805542,290.243622 370.806427,290.004883 
	C354.704285,290.004883 338.602142,290.004883 321.500000,290.004883 
z"/>
<path fill="#424244" opacity="1.000000" stroke="none" 
	d="
M483.343506,204.300507 
	C487.139862,198.795074 490.647491,193.523895 494.389191,188.424438 
	C495.254089,187.245682 496.912537,185.916031 498.217438,185.903900 
	C516.022034,185.738373 533.828613,185.792480 552.331299,185.792480 
	C551.476501,187.259155 551.043884,188.248337 550.399353,189.071548 
	C524.937622,221.590607 499.483521,254.115845 473.896393,286.536102 
	C472.652618,288.112030 470.225189,289.673676 468.339203,289.685516 
	C437.843567,289.876801 407.346313,289.817719 376.849457,289.801056 
	C376.046387,289.800629 375.243378,289.640289 373.715820,289.477142 
	C378.891174,254.928406 384.028290,220.635056 389.205780,186.072174 
	C403.827057,186.072174 418.223358,186.072174 432.960938,186.072174 
	C428.566254,215.507172 424.225525,244.581070 419.781860,274.344208 
	C424.532166,274.344208 428.828735,274.607849 433.060181,274.198425 
	C434.503418,274.058807 436.144958,272.479431 437.083313,271.131470 
	C452.493561,248.993805 467.805695,226.787842 483.343506,204.300507 
z"/>
<path fill="#424244" opacity="1.000000" stroke="none" 
	d="
M251.789978,253.953217 
	C248.672974,265.854584 245.704529,277.405823 242.598007,289.494385 
	C229.453842,289.494385 215.369095,289.494385 200.292679,289.494385 
	C201.586105,281.642700 202.480438,273.948730 204.156601,266.429077 
	C211.591110,233.076202 229.412827,207.353149 261.329987,193.580887 
	C287.188171,182.423065 314.080627,182.224411 340.129669,192.962555 
	C369.812683,205.198730 378.002899,230.237671 373.737885,257.615234 
	C373.557373,258.773926 371.811554,260.564606 370.772034,260.580688 
	C357.651825,260.783478 344.527405,260.713959 331.372864,260.713959 
	C331.372864,255.611923 331.665527,250.982666 331.320099,246.401505 
	C330.093262,230.130249 321.803040,222.237350 305.591736,219.853012 
	C280.127075,216.107697 264.376099,229.420609 254.058899,249.081863 
	C253.286224,250.554367 252.642303,252.094421 251.789978,253.953217 
z"/>
<path fill="#038AB7" opacity="1.000000" stroke="none" 
	d="
M241.010422,314.334290 
	C225.304657,314.266357 209.598877,314.198425 192.972107,314.149902 
	C160.376434,314.225952 128.701736,314.282593 97.027054,314.339233 
	C80.740326,311.054230 64.443123,307.820007 48.170330,304.467377 
	C36.179455,301.996918 24.220476,299.371674 12.358036,296.231018 
	C164.992783,296.231018 317.627533,296.231018 470.658752,296.231018 
	C465.516998,303.543579 473.979370,307.642975 474.168732,314.126678 
	C439.398834,314.126678 404.646942,314.126678 368.973663,314.147308 
	C344.467987,314.156250 320.883636,314.115417 297.299377,314.142151 
	C278.536377,314.163391 259.773407,314.267181 241.010422,314.334290 
z"/>
<path fill="#088CB8" opacity="1.000000" stroke="none" 
	d="
M238.740555,333.944336 
	C238.474136,339.573364 238.207718,345.202423 237.917984,351.323853 
	C236.472443,351.437042 235.060852,351.643311 233.649109,351.644135 
	C197.529785,351.664917 161.402985,352.069458 125.295975,351.403900 
	C115.325264,351.220123 105.388374,347.958893 95.480232,345.897034 
	C78.065338,342.273010 60.683491,338.490051 43.293011,334.749481 
	C42.505440,334.580078 41.769047,334.172729 41.043850,333.889893 
	C41.066105,333.615417 41.077724,333.348602 41.089149,333.348633 
	C91.492859,333.385590 141.896561,333.440125 192.834320,333.637360 
	C193.368378,333.780060 193.800476,333.654175 193.800476,333.654175 
	C194.098328,333.573090 194.396179,333.492035 195.467804,333.488281 
	C210.407898,333.691833 224.574234,333.818085 238.740555,333.944336 
z"/>
<path fill="#088DB9" opacity="1.000000" stroke="none" 
	d="
M481.069397,332.999451 
	C484.252319,338.911255 487.435242,344.823090 490.955750,351.361938 
	C449.054321,351.361938 408.093048,351.361938 366.397797,351.361938 
	C367.277832,345.450500 368.142609,339.641632 369.583252,333.435120 
	C384.406891,333.041870 398.654663,333.046265 413.260681,333.257874 
	C420.063202,333.326599 426.507477,333.188171 433.423462,333.047791 
	C449.619873,333.030396 465.344635,333.014923 481.069397,332.999451 
z"/>
<path fill="#0DB1F0" opacity="1.000000" stroke="none" 
	d="
M412.902466,333.050690 
	C398.654663,333.046265 384.406891,333.041870 369.707733,333.045105 
	C369.795654,328.967651 370.334900,324.882568 370.933136,320.350952 
	C373.005798,320.350952 374.794434,320.350861 376.583038,320.350952 
	C406.967438,320.352173 437.353821,320.533600 467.734406,320.194427 
	C473.439545,320.130737 476.778015,321.633820 478.479828,327.015259 
	C479.072113,328.888245 480.200745,330.591644 481.076904,332.685974 
	C465.344635,333.014923 449.619873,333.030396 433.358582,332.694519 
	C431.237488,325.760986 426.715271,325.053345 420.784454,325.494995 
	C413.417755,326.043640 413.385498,325.610291 412.902466,333.050690 
z"/>
<path fill="#0B89BA" opacity="1.000000" stroke="none" 
	d="
M332.089722,409.314880 
	C330.401733,410.607910 328.713715,411.900909 326.545471,412.869080 
	C323.311676,412.362854 320.559570,412.050903 317.804352,412.019867 
	C284.895813,411.649048 251.986832,411.320038 219.077972,410.980042 
	C217.492264,409.509491 215.906555,408.038910 214.426407,406.086670 
	C214.681488,405.060211 214.831009,404.515472 215.359573,404.052246 
	C217.548248,404.755615 219.356369,405.914856 221.167725,405.919952 
	C258.497925,406.025269 295.828491,405.999207 333.002014,405.999207 
	C332.776733,406.817963 332.433228,408.066406 332.089722,409.314880 
z"/>
<path fill="#0D7FA9" opacity="1.000000" stroke="none" 
	d="
M332.409821,409.211029 
	C332.433228,408.066406 332.776733,406.817963 333.002014,405.999207 
	C295.828491,405.999207 258.497925,406.025269 221.167725,405.919952 
	C219.356369,405.914856 217.548248,404.755615 215.360199,403.812256 
	C214.981766,403.490723 214.987183,403.010040 214.993439,403.005035 
	C214.999695,403.000031 215.009216,402.987823 215.351151,402.808868 
	C217.702438,402.086731 219.704971,401.105316 221.722260,401.074036 
	C232.016174,400.914276 242.315170,401.079163 252.608810,400.911133 
	C254.082901,400.887085 255.537506,399.669891 257.375854,399.005310 
	C258.500061,399.005432 259.249542,399.005157 260.080750,399.373352 
	C262.775574,399.829376 265.388733,399.914124 268.001648,400.005005 
	C277.520538,400.335938 287.040497,400.638916 296.557892,401.008575 
	C309.113800,401.496307 321.666321,402.080597 334.224915,402.476929 
	C335.296600,402.510742 336.403046,401.444183 337.592499,400.838287 
	C337.937073,401.726654 338.284332,402.621857 338.631561,403.517029 
	C338.631561,403.517029 338.545868,403.520172 338.212799,403.462097 
	C337.600647,403.969696 337.321594,404.535370 337.042480,405.101074 
	C335.604980,406.436432 334.167480,407.771820 332.409821,409.211029 
z"/>
<path fill="#0DB1F0" opacity="1.000000" stroke="none" 
	d="
M238.889877,333.580750 
	C224.574234,333.818085 210.407898,333.691833 195.929779,333.457336 
	C196.209579,329.265656 196.801163,325.182220 197.444122,320.744202 
	C211.772568,320.744202 225.931946,320.744202 240.993423,320.744202 
	C240.335159,324.945587 239.687180,329.081390 238.889877,333.580750 
z"/>
<path fill="#0993C7" opacity="1.000000" stroke="none" 
	d="
M219.222687,411.277435 
	C251.986832,411.320038 284.895813,411.649048 317.804352,412.019867 
	C320.559570,412.050903 323.311676,412.362854 326.221985,412.918579 
	C326.378754,413.292877 326.314789,413.273956 325.914551,413.228149 
	C325.048492,413.674774 324.582611,414.167267 324.116760,414.659729 
	C322.095459,415.865631 320.074158,417.071503 317.609314,418.226685 
	C317.165771,418.175934 316.947021,417.967682 316.768921,417.723236 
	C315.726044,417.653198 314.861237,417.827606 313.998230,418.001007 
	C314.000000,418.000000 314.002533,417.997559 313.564697,417.997925 
	C306.607819,417.666504 300.090485,417.094666 293.569366,417.048584 
	C275.164917,416.918640 256.757843,416.916931 238.355209,417.143250 
	C236.548080,417.165436 234.764587,419.110443 232.970123,420.162964 
	C228.435898,417.300232 223.901657,414.437531 219.222687,411.277435 
z"/>
<path fill="#126E91" opacity="1.000000" stroke="none" 
	d="
M259.998993,399.004883 
	C259.249542,399.005157 258.500061,399.005432 257.276489,398.612762 
	C256.134491,397.822174 255.467072,397.078705 254.798706,397.077850 
	C240.538528,397.059784 226.277832,397.183502 212.018707,397.078583 
	C210.676666,397.068726 209.344452,395.721436 208.314850,394.756317 
	C209.931488,394.012787 211.227997,393.107483 212.552368,393.064728 
	C227.428314,392.584229 242.308517,392.236389 257.187592,391.852905 
	C257.187592,391.852905 257.079437,391.877411 257.164795,392.072815 
	C257.819855,392.262268 258.389526,392.256287 258.959198,392.250275 
	C269.155579,395.911896 279.432220,395.411285 290.499390,392.872925 
	C291.839539,392.586273 292.429047,392.270599 293.018524,391.954956 
	C293.018524,391.954926 293.181244,391.772217 293.746521,391.852325 
	C300.906281,392.288300 307.497009,392.800690 314.096191,392.958618 
	C321.591492,393.138031 329.097107,392.894043 336.591522,393.090820 
	C338.077850,393.129822 339.533630,394.331055 340.947571,395.325439 
	C338.904724,399.364105 335.824280,397.006561 333.215759,396.976013 
	C308.653809,396.688782 284.092529,396.343170 259.453583,396.013367 
	C259.591858,396.771820 259.795410,397.888336 259.998993,399.004883 
z"/>
<path fill="#FBEEDE" opacity="1.000000" stroke="none" 
	d="
M281.000000,294.003662 
	C342.267700,294.003662 403.035370,294.003662 463.803070,294.003662 
	C463.802856,294.240326 463.802643,294.477020 463.802399,294.713684 
	C315.334106,294.713684 166.865799,294.713684 18.397491,294.713684 
	C18.396793,294.477020 18.396095,294.240326 18.395395,294.003662 
	C105.763596,294.003662 193.131805,294.003662 281.000000,294.003662 
z"/>
<path fill="#069FD8" opacity="1.000000" stroke="none" 
	d="
M233.168869,420.406799 
	C234.764587,419.110443 236.548080,417.165436 238.355209,417.143250 
	C256.757843,416.916931 275.164917,416.918640 293.569366,417.048584 
	C300.090485,417.094666 306.607819,417.666504 313.448944,418.276184 
	C313.548645,419.111755 313.326263,419.669464 313.103882,420.227173 
	C313.103882,420.227173 313.079132,420.131958 312.814331,420.120209 
	C312.037964,420.403259 311.526398,420.698029 311.014832,420.992798 
	C311.014832,420.992828 310.772400,421.232971 310.354584,420.966187 
	C309.316742,420.557648 308.696716,420.415924 308.076660,420.274231 
	C308.042969,420.479187 308.009277,420.684143 307.975586,420.889099 
	C308.780487,420.969788 309.585358,421.050446 310.390228,421.131104 
	C309.143250,421.740509 307.896271,422.349915 306.102905,422.757751 
	C304.063965,422.091278 302.579529,421.279724 301.076935,421.244751 
	C298.958282,421.195435 296.827484,421.951630 294.699677,421.963257 
	C281.208496,422.037201 267.716675,421.985657 254.225128,422.008331 
	C248.649155,422.017700 243.073303,422.108246 237.497406,422.161865 
	C236.120819,421.658142 234.744217,421.154388 233.168869,420.406799 
z"/>
<path fill="#10769C" opacity="1.000000" stroke="none" 
	d="
M260.080750,399.373352 
	C259.795410,397.888336 259.591858,396.771820 259.453583,396.013367 
	C284.092529,396.343170 308.653809,396.688782 333.215759,396.976013 
	C335.824280,397.006561 338.904724,399.364105 341.269501,395.330078 
	C342.438873,395.517426 343.230347,396.029266 344.021790,396.541107 
	C342.430054,398.796448 340.838348,401.051819 338.939087,403.412109 
	C338.284332,402.621857 337.937073,401.726654 337.592499,400.838287 
	C336.403046,401.444183 335.296600,402.510742 334.224915,402.476929 
	C321.666321,402.080597 309.113800,401.496307 296.557892,401.008575 
	C287.040497,400.638916 277.520538,400.335938 268.001648,400.005005 
	C265.388733,399.914124 262.775574,399.829376 260.080750,399.373352 
z"/>
<path fill="#222A30" opacity="1.000000" stroke="none" 
	d="
M365.277740,365.988678 
	C365.584045,363.538055 365.890381,361.087433 366.241821,358.275787 
	C380.695709,358.275787 395.140869,358.275787 409.925537,358.275787 
	C409.570770,360.682068 409.239777,362.927368 408.452087,365.571533 
	C404.361877,365.980408 400.728333,365.998688 397.094788,365.998840 
	C386.489105,365.999329 375.883423,365.992554 365.277740,365.988678 
z"/>
<path fill="#05A3DE" opacity="1.000000" stroke="none" 
	d="
M472.869141,420.052917 
	C471.680969,417.912445 470.492798,415.772003 469.450012,413.129333 
	C473.638306,414.031769 477.761322,412.821564 481.843445,412.947052 
	C492.421570,413.272278 503.007996,413.368683 513.591736,413.415985 
	C514.723877,413.421051 515.860046,412.499756 517.175415,412.236450 
	C517.729553,412.523315 518.102539,412.581970 518.475586,412.640625 
	C518.475586,412.640625 518.444641,412.756561 518.325562,413.109314 
	C518.669800,413.938019 519.133118,414.413971 519.596436,414.889923 
	C520.013123,415.494049 520.429810,416.098175 520.869751,417.371399 
	C519.281799,418.693268 517.676880,419.894379 516.058350,419.912994 
	C501.663300,420.078461 487.265869,420.034882 472.869141,420.052917 
z"/>
<path fill="#222A30" opacity="1.000000" stroke="none" 
	d="
M446.892120,367.045135 
	C445.426300,364.315674 443.960480,361.586212 441.984711,357.907166 
	C445.759705,357.907166 448.634918,357.907166 451.510162,357.907166 
	C462.985687,357.907227 474.469025,358.148895 485.932556,357.777802 
	C490.010681,357.645782 492.114899,359.000763 493.092407,363.293030 
	C489.291626,364.310822 485.617432,364.898895 481.935638,364.951477 
	C472.173523,365.090942 462.405853,364.890320 452.645935,365.091705 
	C450.715363,365.131531 448.809418,366.363129 446.892120,367.045135 
z"/>
<path fill="#0AA9E3" opacity="1.000000" stroke="none" 
	d="
M237.768005,422.427490 
	C243.073303,422.108246 248.649155,422.017700 254.225128,422.008331 
	C267.716675,421.985657 281.208496,422.037201 294.699677,421.963257 
	C296.827484,421.951630 298.958282,421.195435 301.076935,421.244751 
	C302.579529,421.279724 304.063965,422.091278 305.748138,422.762756 
	C283.278625,429.617432 260.638885,431.008820 237.768005,422.427490 
z"/>
<path fill="#0D81AD" opacity="1.000000" stroke="none" 
	d="
M464.786896,403.489075 
	C464.203186,402.543243 463.619507,401.597382 463.021454,399.947571 
	C464.059692,398.456329 465.105347,396.995850 466.165955,396.984985 
	C478.082886,396.862457 490.002045,396.973999 501.920685,396.995087 
	C504.718964,397.000031 507.517426,396.901703 510.315796,396.850891 
	C510.315796,396.850891 510.195038,396.894226 510.165924,397.168213 
	C510.519379,397.927246 510.901978,398.412323 511.284576,398.897400 
	C511.284576,398.897400 511.145203,398.908600 511.150330,399.195190 
	C511.601318,399.936707 512.047180,400.391632 512.493103,400.846558 
	C512.998535,401.693420 513.503906,402.540314 513.564270,403.690735 
	C501.019226,403.995361 488.918457,404.067780 476.820129,403.926666 
	C474.828125,403.903412 472.847046,402.943146 471.196686,402.505066 
	C469.336487,402.505066 467.865509,402.415070 466.415466,402.550110 
	C465.848419,402.602905 465.328369,403.161072 464.786896,403.489075 
M506.515198,398.423859 
	C506.515198,398.423859 506.569855,398.521027 506.515198,398.423859 
M507.575592,400.513000 
	C507.575592,400.513000 507.479797,400.566742 507.575592,400.513000 
z"/>
<path fill="#1F3C49" opacity="1.000000" stroke="none" 
	d="
M365.149139,366.371155 
	C375.883423,365.992554 386.489105,365.999329 397.094788,365.998840 
	C400.728333,365.998688 404.361877,365.980408 408.317383,365.965393 
	C408.342773,368.485809 408.046204,371.011230 407.322357,373.734131 
	C404.771118,373.514435 402.637268,372.694641 400.524811,372.746521 
	C388.400757,373.044281 376.281769,373.548737 364.161041,373.983093 
	C364.447540,371.573273 364.734039,369.163452 365.149139,366.371155 
z"/>
<path fill="#195168" opacity="1.000000" stroke="none" 
	d="
M201.848633,387.282532 
	C200.556992,384.435699 199.265335,381.588898 198.361359,378.330994 
	C210.113602,377.947083 221.481400,377.828491 232.840912,378.082306 
	C236.707336,378.168701 240.552841,379.192566 244.407898,379.788086 
	C244.407898,379.788086 244.209610,379.855133 244.263275,380.038635 
	C244.609314,380.461853 244.901703,380.701538 245.194107,380.941223 
	C245.884933,382.022949 246.575745,383.104706 246.904922,384.530243 
	C232.992447,384.144653 219.408142,382.227417 205.685196,385.887390 
	C204.206650,386.265686 203.027649,386.774109 201.848633,387.282532 
z"/>
<path fill="#0D81AD" opacity="1.000000" stroke="none" 
	d="
M403.720520,398.951050 
	C403.454407,401.018921 403.188263,403.086761 402.604095,405.259125 
	C402.087341,404.272858 401.888641,403.182129 401.816498,402.785980 
	C399.950500,403.217285 398.267395,403.921783 396.575165,403.944427 
	C387.986755,404.059418 379.394409,403.901459 370.806763,404.041870 
	C367.050171,404.103302 363.301483,404.648010 359.549225,404.973267 
	C359.580292,404.515839 359.611328,404.058411 360.088989,403.021118 
	C360.843262,400.842987 361.150940,399.244720 361.457886,397.650177 
	C362.020264,397.432800 362.473969,397.105560 362.929016,397.103607 
	C375.052979,397.051270 387.177765,396.965820 399.300232,397.094116 
	C400.780029,397.109772 402.247375,398.303375 403.720520,398.951050 
z"/>
<path fill="#05A3DE" opacity="1.000000" stroke="none" 
	d="
M357.747803,416.923248 
	C357.769531,416.477051 357.791260,416.030884 358.161835,415.092163 
	C358.821259,414.055878 359.131805,413.512146 359.660309,412.586853 
	C359.935303,413.971619 360.132782,414.966003 360.136963,414.987030 
	C361.988129,414.272156 363.624298,413.108643 365.274994,413.087708 
	C377.400238,412.933899 389.528351,413.008667 401.655579,413.011414 
	C401.410065,415.068939 401.164551,417.126495 400.471619,419.626617 
	C386.136200,420.069214 372.248169,420.069214 358.408203,420.069214 
	C358.173859,418.952789 357.960815,417.938019 357.747803,416.923248 
z"/>
<path fill="#1A4B5F" opacity="1.000000" stroke="none" 
	d="
M454.875244,383.292908 
	C453.544861,380.803894 452.214447,378.314880 451.109314,375.293060 
	C452.323669,374.090759 453.312805,373.421234 454.301971,372.751709 
	C456.522675,376.240784 459.733887,373.916107 462.383606,373.895477 
	C474.344604,373.802277 486.302765,373.347473 498.261963,373.022949 
	C499.566803,375.436676 500.871674,377.850433 501.832397,380.487335 
	C499.529236,380.475708 497.571320,380.049042 495.610992,380.037750 
	C484.308624,379.972687 473.005005,380.067078 461.703613,379.944855 
	C459.843048,379.924713 457.991180,379.100189 455.664642,378.532623 
	C455.453186,379.807800 455.164215,381.550354 454.875244,383.292908 
z"/>
<path fill="#1A4B5F" opacity="1.000000" stroke="none" 
	d="
M364.036926,374.358582 
	C376.281769,373.548737 388.400757,373.044281 400.524811,372.746521 
	C402.637268,372.694641 404.771118,373.514435 407.152679,374.071716 
	C407.263916,375.537170 407.117554,376.862549 406.619263,378.333130 
	C404.906738,378.342651 403.490204,377.914307 402.202606,378.160431 
	C401.097870,378.371552 400.115814,379.946899 399.121979,379.905243 
	C387.254333,379.407959 375.213135,381.755859 363.545715,377.868286 
	C363.668060,376.823547 363.790436,375.778839 364.036926,374.358582 
z"/>
<path fill="#195168" opacity="1.000000" stroke="none" 
	d="
M305.891357,383.754120 
	C307.607300,381.549194 309.323273,379.344269 311.716370,377.043518 
	C316.050995,377.295410 319.713226,377.978943 323.365173,377.927856 
	C334.213959,377.776215 345.058716,377.335388 355.905029,377.007599 
	C355.337982,378.515564 354.770966,380.023529 353.823608,381.904968 
	C353.225647,382.450958 353.087738,382.673035 353.029449,382.944580 
	C353.029449,382.944580 352.961761,383.062164 352.618408,383.160309 
	C350.852844,384.509186 349.430603,385.759949 347.728394,386.800964 
	C344.489960,385.395386 341.548309,383.229309 338.569977,383.177551 
	C327.683716,382.988464 316.785217,383.503998 305.891357,383.754120 
z"/>
<path fill="#1B93BD" opacity="1.000000" stroke="none" 
	d="
M346.993042,346.807770 
	C352.121948,346.808014 356.752441,346.808014 361.382935,346.808014 
	C361.710266,347.213440 362.037598,347.618866 362.364929,348.024323 
	C361.214844,349.252838 360.084991,351.526947 358.911560,351.549683 
	C345.803680,351.803467 332.689117,351.709869 319.474457,351.709869 
	C318.416473,348.336487 318.892395,346.706787 322.555084,346.766754 
	C330.533020,346.897430 338.514557,346.807373 346.993042,346.807770 
z"/>
<path fill="#24282A" opacity="1.000000" stroke="none" 
	d="
M317.599915,362.879761 
	C317.859314,361.421661 318.118683,359.963562 318.429810,358.214661 
	C332.583435,358.214661 346.655670,358.214661 361.100586,358.214661 
	C360.671967,360.457886 360.273651,362.542572 359.307800,364.773010 
	C355.963440,364.613342 353.193268,364.144562 350.408600,364.031281 
	C339.474823,363.586609 328.536530,363.253998 317.599915,362.879761 
z"/>
<path fill="#FEF4E8" opacity="1.000000" stroke="none" 
	d="
M241.147705,314.694397 
	C259.773407,314.267181 278.536377,314.163391 297.299377,314.142151 
	C320.883636,314.115417 344.467987,314.156250 368.512695,314.244812 
	C367.588257,314.879913 366.204437,315.922699 364.818329,315.925720 
	C324.864410,316.013062 284.910278,316.004547 244.956238,315.956573 
	C243.732147,315.955109 242.508728,315.368378 241.147705,314.694397 
z"/>
<path fill="#0B8EC0" opacity="1.000000" stroke="none" 
	d="
M464.793152,403.808594 
	C465.328369,403.161072 465.848419,402.602905 466.415466,402.550110 
	C467.865509,402.415070 469.336487,402.505066 471.196686,402.505066 
	C472.847046,402.943146 474.828125,403.903412 476.820129,403.926666 
	C488.918457,404.067780 501.019226,403.995361 513.592285,403.989258 
	C514.699524,405.099060 515.333679,406.213898 515.664429,407.710541 
	C514.481995,408.493469 513.602417,409.244568 512.724121,409.242950 
	C500.575897,409.220856 488.427307,409.134552 476.280853,408.936432 
	C475.022614,408.915924 473.777649,408.080048 472.275848,407.530823 
	C471.943756,407.917755 471.150085,408.842438 471.097992,408.903168 
	C469.152069,408.512299 468.025055,408.285919 466.898010,408.059540 
	C466.198456,406.749054 465.498932,405.438599 464.793152,403.808594 
z"/>
<path fill="#155B76" opacity="1.000000" stroke="none" 
	d="
M305.595795,383.887726 
	C316.785217,383.503998 327.683716,382.988464 338.569977,383.177551 
	C341.548309,383.229309 344.489960,385.395386 347.585754,387.088135 
	C346.348145,391.547638 343.453918,388.919495 341.292114,388.945038 
	C330.848907,389.068329 320.400665,389.131836 309.960754,388.909149 
	C307.290161,388.852173 304.643524,387.675232 301.985870,387.012817 
	C303.090668,386.015656 304.195465,385.018494 305.595795,383.887726 
z"/>
<path fill="#176785" opacity="1.000000" stroke="none" 
	d="
M301.649292,387.090698 
	C304.643524,387.675232 307.290161,388.852173 309.960754,388.909149 
	C320.400665,389.131836 330.848907,389.068329 341.292114,388.945038 
	C343.453918,388.919495 346.348145,391.547638 347.865723,387.297882 
	C349.430603,385.759949 350.852844,384.509186 352.556885,383.131744 
	C350.087708,387.436493 347.336670,391.867981 344.303711,396.420288 
	C343.230347,396.029266 342.438873,395.517426 341.325439,395.000977 
	C339.533630,394.331055 338.077850,393.129822 336.591522,393.090820 
	C329.097107,392.894043 321.591492,393.138031 314.096191,392.958618 
	C307.497009,392.800690 300.906281,392.288300 293.857605,391.903625 
	C296.039795,390.306030 298.676270,388.737305 301.649292,387.090698 
z"/>
<path fill="#24282A" opacity="1.000000" stroke="none" 
	d="
M195.128799,362.993652 
	C194.981705,361.530975 194.834610,360.068298 194.616409,357.898712 
	C200.116577,357.898712 205.328049,357.897095 210.539520,357.899109 
	C218.470886,357.902130 226.404724,357.808289 234.331284,358.005981 
	C235.718307,358.040588 237.074692,359.304901 238.125061,360.566895 
	C236.088913,362.117279 234.365433,363.963898 232.658173,363.949005 
	C220.146561,363.840027 207.638184,363.358032 195.128799,362.993652 
z"/>
<path fill="#23333D" opacity="1.000000" stroke="none" 
	d="
M195.070526,363.410217 
	C207.638184,363.358032 220.146561,363.840027 232.658173,363.949005 
	C234.365433,363.963898 236.088913,362.117279 238.058655,361.016327 
	C238.554123,363.337463 238.795792,365.774841 238.847687,368.900269 
	C237.774261,370.388062 236.890625,371.187805 235.986206,371.575623 
	C235.230438,370.453857 234.490891,369.121918 233.761124,369.127228 
	C222.387390,369.210327 211.012115,369.390259 199.646973,369.811371 
	C198.616608,369.849579 197.653290,371.696808 196.658844,372.703949 
	C196.109970,369.744873 195.561111,366.785828 195.070526,363.410217 
z"/>
<path fill="#1E4659" opacity="1.000000" stroke="none" 
	d="
M236.006989,371.987549 
	C236.890625,371.187805 237.774261,370.388062 238.810806,369.328125 
	C240.728012,372.400574 242.492310,375.733246 244.332245,379.427002 
	C240.552841,379.192566 236.707336,378.168701 232.840912,378.082306 
	C221.481400,377.828491 210.113602,377.947083 198.382660,377.952087 
	C197.706802,377.191895 197.397354,376.399445 197.408401,375.027710 
	C199.047714,373.967194 200.362137,373.083160 201.686020,373.068817 
	C211.808151,372.958862 221.932434,373.056122 232.055206,372.979126 
	C233.374908,372.969116 234.689850,372.333435 236.006989,371.987549 
z"/>
<path fill="#1F3C49" opacity="1.000000" stroke="none" 
	d="
M498.206085,372.687897 
	C486.302765,373.347473 474.344604,373.802277 462.383606,373.895477 
	C459.733887,373.916107 456.522675,376.240784 454.301971,372.751709 
	C453.312805,373.421234 452.323669,374.090759 451.057953,374.939606 
	C449.957520,373.616638 449.133667,372.114319 448.513733,370.159119 
	C464.529816,369.451141 480.342010,369.196045 496.154205,368.940948 
	C496.819550,370.078247 497.484894,371.215546 498.206085,372.687897 
z"/>
<path fill="#126A8D" opacity="1.000000" stroke="none" 
	d="
M504.342255,384.897797 
	C504.952698,385.922577 505.563141,386.947327 506.040283,388.635803 
	C503.605865,390.532501 501.348358,392.721954 498.995880,392.829285 
	C489.875336,393.245270 480.724548,393.000671 471.585022,392.997986 
	C466.991791,392.996613 462.325348,393.218384 459.096710,388.698669 
	C461.869995,384.083344 464.930847,387.953094 467.844482,387.970001 
	C478.424469,388.031342 489.006927,388.086578 499.582611,387.864899 
	C500.744141,387.840515 501.867920,386.015198 503.343201,385.001099 
	C503.898895,384.950623 504.120575,384.924194 504.342255,384.897797 
z"/>
<path fill="#126A8D" opacity="1.000000" stroke="none" 
	d="
M405.071838,387.593567 
	C405.018341,389.151459 404.964813,390.709381 404.327942,392.631653 
	C395.614532,392.996948 387.484436,393.005249 379.354340,392.996338 
	C373.343628,392.989777 367.241943,393.483582 361.842407,389.951843 
	C362.231323,388.537994 362.620270,387.124146 363.373444,385.203308 
	C365.156311,384.804321 366.574921,384.912384 368.014374,385.431580 
	C368.947449,386.557434 369.932068,387.968109 370.761017,387.881897 
	C382.145905,386.697601 394.009735,391.081818 404.988770,385.451233 
	C405.029327,386.450684 405.050598,387.022125 405.071838,387.593567 
z"/>
<path fill="#176785" opacity="1.000000" stroke="none" 
	d="
M201.960617,387.616394 
	C203.027649,386.774109 204.206650,386.265686 205.691711,386.220459 
	C206.592865,387.222626 207.177170,388.219055 207.784637,388.233398 
	C220.868744,388.542053 233.955139,388.790192 247.042175,388.865448 
	C248.065674,388.871338 249.096985,387.521088 250.124664,386.801147 
	C252.357208,388.291595 254.589752,389.782043 257.004944,391.562683 
	C242.308517,392.236389 227.428314,392.584229 212.552368,393.064728 
	C211.227997,393.107483 209.931488,394.012787 208.262299,394.454437 
	C207.178833,394.651978 206.455093,394.912598 205.731354,395.173187 
	C204.511765,392.765533 203.292175,390.357880 201.960617,387.616394 
z"/>
<path fill="#145E7B" opacity="1.000000" stroke="none" 
	d="
M503.009186,385.025177 
	C501.867920,386.015198 500.744141,387.840515 499.582611,387.864899 
	C489.006927,388.086578 478.424469,388.031342 467.844482,387.970001 
	C464.930847,387.953094 461.869995,384.083344 458.980743,388.905762 
	C458.621704,389.714630 458.370239,389.901733 458.063904,390.015045 
	C457.402863,388.645050 456.741821,387.275055 456.092651,385.176331 
	C456.891174,383.975342 457.671844,383.104614 458.465332,383.092773 
	C466.063141,382.979370 473.670441,383.215729 481.260315,382.942596 
	C488.583130,382.679138 495.897461,384.060730 503.207977,382.909546 
	C503.207977,382.909546 503.123871,382.938812 503.079041,383.256317 
	C503.025879,384.057617 503.017548,384.541382 503.009186,385.025177 
z"/>
<path fill="#10769C" opacity="1.000000" stroke="none" 
	d="
M458.103027,390.366882 
	C458.370239,389.901733 458.621704,389.714630 458.934174,389.246613 
	C462.325348,393.218384 466.991791,392.996613 471.585022,392.997986 
	C480.724548,393.000671 489.875336,393.245270 498.995880,392.829285 
	C501.348358,392.721954 503.605865,390.532501 506.076599,388.938599 
	C507.575500,391.094818 508.904846,393.611877 510.274994,396.489929 
	C507.517426,396.901703 504.718964,397.000031 501.920685,396.995087 
	C490.002045,396.973999 478.082886,396.862457 466.165955,396.984985 
	C465.105347,396.995850 464.059692,398.456329 463.007782,399.609680 
	C461.386353,396.890106 459.764252,393.804413 458.103027,390.366882 
z"/>
<path fill="#10769C" opacity="1.000000" stroke="none" 
	d="
M205.769669,395.154541 
	C206.455093,394.912598 207.178833,394.651978 207.955109,394.693237 
	C209.344452,395.721436 210.676666,397.068726 212.018707,397.078583 
	C226.277832,397.183502 240.538528,397.059784 254.798706,397.077850 
	C255.467072,397.078705 256.134491,397.822174 256.901733,398.612335 
	C255.537506,399.669891 254.082901,400.887085 252.608810,400.911133 
	C242.315170,401.079163 232.016174,400.914276 221.722260,401.074036 
	C219.704971,401.105316 217.702438,402.086731 215.294495,402.680908 
	C214.813385,402.687592 214.730835,402.643250 214.648285,402.598907 
	C214.761246,402.735962 214.874207,402.872986 214.987183,403.010040 
	C214.987183,403.010040 214.981766,403.490723 214.981140,403.730713 
	C214.831009,404.515472 214.681488,405.060211 214.307251,405.783783 
	C211.756577,403.205658 209.430618,400.448730 207.009903,397.043274 
	C206.521683,395.960876 206.128204,395.527008 205.734726,395.093140 
	C205.734726,395.093140 205.807983,395.135895 205.769669,395.154541 
M212.487198,401.579376 
	C212.487198,401.579376 212.427765,401.476898 212.487198,401.579376 
z"/>
<path fill="#23333D" opacity="1.000000" stroke="none" 
	d="
M317.378479,363.148041 
	C328.536530,363.253998 339.474823,363.586609 350.408600,364.031281 
	C353.193268,364.144562 355.963440,364.613342 359.161163,365.120331 
	C359.248901,366.711029 358.915802,368.100128 358.060974,369.647400 
	C356.280151,369.279114 355.017212,368.287750 353.762634,368.298218 
	C341.051605,368.403992 328.341980,368.673431 315.631958,368.897003 
	C316.140320,367.070129 316.648682,365.243256 317.378479,363.148041 
z"/>
<path fill="#0B8EC0" opacity="1.000000" stroke="none" 
	d="
M359.381897,405.270721 
	C363.301483,404.648010 367.050171,404.103302 370.806763,404.041870 
	C379.394409,403.901459 387.986755,404.059418 396.575165,403.944427 
	C398.267395,403.921783 399.950500,403.217285 401.816498,402.785980 
	C401.888641,403.182129 402.087341,404.272858 402.474243,405.628906 
	C402.592468,406.757477 402.522552,407.620789 401.786438,408.744873 
	C389.365417,409.002960 377.610077,409.054138 365.856262,408.941925 
	C364.001221,408.924225 362.153259,408.167999 359.984070,407.682007 
	C359.953979,407.723053 359.484497,408.363495 359.015045,409.003906 
	C359.081543,407.858673 359.148071,406.713440 359.381897,405.270721 
z"/>
<path fill="#155B76" opacity="1.000000" stroke="none" 
	d="
M249.996857,386.515564 
	C249.096985,387.521088 248.065674,388.871338 247.042175,388.865448 
	C233.955139,388.790192 220.868744,388.542053 207.784637,388.233398 
	C207.177170,388.219055 206.592865,387.222626 205.991257,386.350586 
	C219.408142,382.227417 232.992447,384.144653 246.921295,384.865753 
	C248.155914,385.314972 249.012497,385.772491 249.996857,386.515564 
z"/>
<path fill="#0898CF" opacity="1.000000" stroke="none" 
	d="
M466.929016,408.399994 
	C468.025055,408.285919 469.152069,408.512299 471.097992,408.903168 
	C471.150085,408.842438 471.943756,407.917755 472.275848,407.530823 
	C473.777649,408.080048 475.022614,408.915924 476.280853,408.936432 
	C488.427307,409.134552 500.575897,409.220856 512.724121,409.242950 
	C513.602417,409.244568 514.481995,408.493469 515.696899,408.036102 
	C516.032837,407.979858 516.002014,407.983948 516.010376,408.329895 
	C516.476746,409.394012 516.934692,410.112122 517.392700,410.830261 
	C517.392700,410.830261 517.259888,410.815948 517.192688,411.075500 
	C517.090332,411.550568 517.055176,411.766144 517.013428,411.987732 
	C517.006775,411.993805 516.994385,412.008209 516.994385,412.008209 
	C515.860046,412.499756 514.723877,413.421051 513.591736,413.415985 
	C503.007996,413.368683 492.421570,413.272278 481.843445,412.947052 
	C477.761322,412.821564 473.638306,414.031769 469.393951,412.793335 
	C468.448303,411.553192 467.704163,410.146820 466.929016,408.399994 
z"/>
<path fill="#23333D" opacity="1.000000" stroke="none" 
	d="
M496.102478,368.593323 
	C480.342010,369.196045 464.529816,369.451141 448.461304,369.837891 
	C447.776093,369.213562 447.347198,368.457611 446.905212,367.373413 
	C448.809418,366.363129 450.715363,365.131531 452.645935,365.091705 
	C462.405853,364.890320 472.173523,365.090942 481.935638,364.951477 
	C485.617432,364.898895 489.291626,364.310822 493.185303,363.636383 
	C494.284485,364.952484 495.167603,366.599091 496.102478,368.593323 
z"/>
<path fill="#10769C" opacity="1.000000" stroke="none" 
	d="
M361.633484,390.279907 
	C367.241943,393.483582 373.343628,392.989777 379.354340,392.996338 
	C387.484436,393.005249 395.614532,392.996948 404.188263,393.003113 
	C404.404633,394.748505 404.177368,396.486786 403.835327,398.588074 
	C402.247375,398.303375 400.780029,397.109772 399.300232,397.094116 
	C387.177765,396.965820 375.052979,397.051270 362.929016,397.103607 
	C362.473969,397.105560 362.020264,397.432800 361.457886,397.650177 
	C361.150940,399.244720 360.843262,400.842987 360.252197,402.714478 
	C360.454041,398.861115 360.939301,394.734528 361.633484,390.279907 
z"/>
<path fill="#1E4659" opacity="1.000000" stroke="none" 
	d="
M356.124756,376.763367 
	C345.058716,377.335388 334.213959,377.776215 323.365173,377.927856 
	C319.713226,377.978943 316.050995,377.295410 312.003052,376.910522 
	C312.188568,375.650940 312.764526,374.428467 313.742737,373.195099 
	C316.154419,373.506287 318.162933,374.099365 320.173370,374.106018 
	C332.435669,374.146759 344.698456,374.054230 356.961060,374.006134 
	C356.755524,374.843811 356.549988,375.681458 356.124756,376.763367 
z"/>
<path fill="#FEF4E8" opacity="1.000000" stroke="none" 
	d="
M97.159523,314.699829 
	C128.701736,314.282593 160.376434,314.225952 192.511063,314.247681 
	C191.752640,314.882599 190.535736,315.921387 189.315704,315.925110 
	C159.698654,316.015472 130.081253,316.005157 100.464027,315.955963 
	C99.406181,315.954224 98.349312,315.372070 97.159523,314.699829 
z"/>
<path fill="#0898CF" opacity="1.000000" stroke="none" 
	d="
M358.806915,409.316589 
	C359.484497,408.363495 359.953979,407.723053 359.984070,407.682007 
	C362.153259,408.167999 364.001221,408.924225 365.856262,408.941925 
	C377.610077,409.054138 389.365417,409.002960 401.593475,409.010681 
	C402.017334,410.091492 401.968018,411.167297 401.787109,412.627258 
	C389.528351,413.008667 377.400238,412.933899 365.274994,413.087708 
	C363.624298,413.108643 361.988129,414.272156 360.136963,414.987030 
	C360.132782,414.966003 359.935303,413.971619 359.660309,412.586853 
	C359.131805,413.512146 358.821259,414.055878 358.285767,414.779724 
	C358.240143,413.182983 358.419464,411.406128 358.806915,409.316589 
z"/>
<path fill="#1F3C49" opacity="1.000000" stroke="none" 
	d="
M357.157349,373.716797 
	C344.698456,374.054230 332.435669,374.146759 320.173370,374.106018 
	C318.162933,374.099365 316.154419,373.506287 314.010620,372.978760 
	C314.300446,371.611664 314.724701,370.450043 315.390442,369.092712 
	C328.341980,368.673431 341.051605,368.403992 353.762634,368.298218 
	C355.017212,368.287750 356.280151,369.279114 357.846985,369.936218 
	C357.887726,371.187103 357.620697,372.307281 357.157349,373.716797 
z"/>
<path fill="#E6F7E7" opacity="1.000000" stroke="none" 
	d="
M19.859165,290.008972 
	C79.040405,290.005646 137.820816,290.005646 196.601227,290.005646 
	C196.601379,290.217834 196.601517,290.430023 196.601654,290.642212 
	C137.115036,290.642212 77.628433,290.642212 17.284384,290.642212 
	C18.562250,290.271942 19.010296,290.142120 19.859165,290.008972 
z"/>
<path fill="#155B76" opacity="1.000000" stroke="none" 
	d="
M405.366577,387.295654 
	C405.050598,387.022125 405.029327,386.450684 404.942810,385.117126 
	C404.699188,384.090942 404.525421,383.599091 404.341766,383.595367 
	C393.344116,383.372864 382.345825,383.131195 371.346924,383.095032 
	C370.231262,383.091370 369.111450,384.348450 367.993561,385.020447 
	C366.574921,384.912384 365.156311,384.804321 363.452118,384.832550 
	C363.185699,382.807220 363.204803,380.645599 363.384827,378.176147 
	C375.213135,381.755859 387.254333,379.407959 399.121979,379.905243 
	C400.115814,379.946899 401.097870,378.371552 402.202606,378.160431 
	C403.490204,377.914307 404.906738,378.342651 406.514038,378.721130 
	C406.394226,381.641846 406.027740,384.319824 405.366577,387.295654 
z"/>
<path fill="#1F3C49" opacity="1.000000" stroke="none" 
	d="
M235.986206,371.575623 
	C234.689850,372.333435 233.374908,372.969116 232.055206,372.979126 
	C221.932434,373.056122 211.808151,372.958862 201.686020,373.068817 
	C200.362137,373.083160 199.047714,373.967194 197.447906,374.705048 
	C196.978012,374.404388 196.789108,373.847076 196.629517,372.996887 
	C197.653290,371.696808 198.616608,369.849579 199.646973,369.811371 
	C211.012115,369.390259 222.387390,369.210327 233.761124,369.127228 
	C234.490891,369.121918 235.230438,370.453857 235.986206,371.575623 
z"/>
<path fill="#155B76" opacity="1.000000" stroke="none" 
	d="
M503.196838,382.627319 
	C495.897461,384.060730 488.583130,382.679138 481.260315,382.942596 
	C473.670441,383.215729 466.063141,382.979370 458.465332,383.092773 
	C457.671844,383.104614 456.891174,383.975342 455.998901,384.858337 
	C455.552399,384.811462 455.211517,384.353882 454.872925,383.594604 
	C455.164215,381.550354 455.453186,379.807800 455.664642,378.532623 
	C457.991180,379.100189 459.843048,379.924713 461.703613,379.944855 
	C473.005005,380.067078 484.308624,379.972687 495.610992,380.037750 
	C497.571320,380.049042 499.529236,380.475708 501.908966,380.837097 
	C502.614990,381.424164 502.900330,381.884644 503.196838,382.627319 
z"/>
<path fill="#E6F7E7" opacity="1.000000" stroke="none" 
	d="
M322.000000,290.004883 
	C338.602142,290.004883 354.704285,290.004883 370.806427,290.004883 
	C370.805542,290.243622 370.804657,290.482330 370.803772,290.721069 
	C329.666351,290.721069 288.528931,290.721069 247.391525,290.721069 
	C247.389038,290.482330 247.386566,290.243622 247.384094,290.004883 
	C272.089386,290.004883 296.794708,290.004883 322.000000,290.004883 
z"/>
<path fill="#0DB1F0" opacity="1.000000" stroke="none" 
	d="
M472.861389,420.355560 
	C487.265869,420.034882 501.663300,420.078461 516.058350,419.912994 
	C517.676880,419.894379 519.281799,418.693268 520.911987,417.648102 
	C521.432007,418.808746 521.933105,420.361847 521.750854,422.001312 
	C505.068878,422.008240 489.070282,421.928772 473.071655,421.849335 
	C472.998993,421.452301 472.926300,421.055237 472.861389,420.355560 
z"/>
<path fill="#0DB1F0" opacity="1.000000" stroke="none" 
	d="
M357.524109,417.210632 
	C357.960815,417.938019 358.173859,418.952789 358.408203,420.069214 
	C372.248169,420.069214 386.136200,420.069214 400.370758,420.010315 
	C400.645325,420.533264 400.573334,421.115112 399.786499,421.829742 
	C385.391876,422.053864 371.712189,422.145233 358.032471,422.236572 
	C357.788452,420.657043 357.544434,419.077545 357.524109,417.210632 
z"/>
<path fill="#DBE9EF" opacity="1.000000" stroke="none" 
	d="
M473.054016,422.135376 
	C489.070282,421.928772 505.068878,422.008240 521.511169,422.237854 
	C521.814880,422.626923 521.617737,422.801117 520.707397,422.962097 
	C504.374451,423.007141 488.697479,423.000702 473.020477,422.994263 
	C473.025787,422.803314 473.031097,422.612335 473.054016,422.135376 
z"/>
<path fill="#E6F7E7" opacity="1.000000" stroke="none" 
	d="
M473.317139,423.285248 
	C488.697479,423.000702 504.374451,423.007141 520.517822,423.027527 
	C520.412598,423.338318 519.839844,423.896667 519.269714,423.894012 
	C504.050934,423.823334 488.832397,423.694885 473.317139,423.285248 
z"/>
<path fill="#DBE9EF" opacity="1.000000" stroke="none" 
	d="
M358.271271,422.447449 
	C371.712189,422.145233 385.391876,422.053864 399.539062,422.005157 
	C400.006531,422.047821 399.987793,422.519684 399.516479,422.759583 
	C386.371643,423.006561 373.698120,423.013672 361.024567,423.020813 
	C360.186401,422.899933 359.348236,422.779114 358.271271,422.447449 
z"/>
<path fill="#E6F7E7" opacity="1.000000" stroke="none" 
	d="
M361.325226,423.304810 
	C373.698120,423.013672 386.371643,423.006561 399.511414,422.995605 
	C399.782959,423.322021 399.586365,423.942413 399.393921,423.941132 
	C386.804382,423.855743 374.215149,423.720062 361.325226,423.304810 
z"/>
<path fill="#0993C7" opacity="1.000000" stroke="none" 
	d="
M313.443237,420.210205 
	C313.326263,419.669464 313.548645,419.111755 313.886780,418.275818 
	C314.002533,417.997559 314.000000,418.000000 314.367676,418.001831 
	C315.472565,417.991699 316.209778,417.979706 316.947021,417.967712 
	C316.947021,417.967682 317.165771,418.175934 317.272034,418.284485 
	C316.179749,418.993073 314.981171,419.593140 313.443237,420.210205 
z"/>
<path fill="#0B8EC0" opacity="1.000000" stroke="none" 
	d="
M517.394897,410.498169 
	C516.934692,410.112122 516.476746,409.394012 516.020630,408.318970 
	C516.480774,408.696716 516.938965,409.431366 517.394897,410.498169 
z"/>
<path fill="#10769C" opacity="1.000000" stroke="none" 
	d="
M337.323792,404.987183 
	C337.321594,404.535370 337.600647,403.969696 338.223633,403.420593 
	C338.246704,403.915924 337.925873,404.394623 337.323792,404.987183 
z"/>
<path fill="#155B76" opacity="1.000000" stroke="none" 
	d="
M503.343201,385.001099 
	C503.017548,384.541382 503.025879,384.057617 503.079346,383.211792 
	C503.481659,383.330383 503.838806,383.811005 504.269104,384.594727 
	C504.120575,384.924194 503.898895,384.950623 503.343201,385.001099 
z"/>
<path fill="#176785" opacity="1.000000" stroke="none" 
	d="
M258.680145,392.074585 
	C258.389526,392.256287 257.819855,392.262268 257.170532,392.017700 
	C257.527588,391.811066 257.964355,391.854980 258.680145,392.074585 
z"/>
<path fill="#0993C7" opacity="1.000000" stroke="none" 
	d="
M311.325195,421.002625 
	C311.526398,420.698029 312.037964,420.403259 312.863159,420.126038 
	C312.663086,420.433197 312.149353,420.722809 311.325195,421.002625 
z"/>
<path fill="#176785" opacity="1.000000" stroke="none" 
	d="
M292.675049,391.959167 
	C292.429047,392.270599 291.839539,392.586273 290.894012,392.891113 
	C291.135864,392.574677 291.733704,392.269012 292.675049,391.959167 
z"/>
<path fill="#176785" opacity="1.000000" stroke="none" 
	d="
M205.789978,395.390381 
	C206.128204,395.527008 206.521683,395.960876 206.946411,396.706573 
	C206.600189,396.574799 206.222717,396.131195 205.789978,395.390381 
z"/>
<path fill="#0898CF" opacity="1.000000" stroke="none" 
	d="
M519.546021,414.562622 
	C519.133118,414.413971 518.669800,413.938019 518.266846,413.096802 
	C518.716736,413.232819 519.106140,413.734100 519.546021,414.562622 
z"/>
<path fill="#10769C" opacity="1.000000" stroke="none" 
	d="
M511.263000,398.581238 
	C510.901978,398.412323 510.519379,397.927246 510.172424,397.104370 
	C510.552521,397.266083 510.896973,397.765564 511.263000,398.581238 
z"/>
<path fill="#0B89BA" opacity="1.000000" stroke="none" 
	d="
M324.453430,414.602661 
	C324.582611,414.167267 325.048492,413.674774 325.888763,413.206970 
	C325.772156,413.669647 325.281128,414.107635 324.453430,414.602661 
z"/>
<path fill="#10769C" opacity="1.000000" stroke="none" 
	d="
M512.411987,400.538879 
	C512.047180,400.391632 511.601318,399.936707 511.168335,399.127625 
	C511.564453,399.259369 511.947693,399.745300 512.411987,400.538879 
z"/>
<path fill="#0898CF" opacity="1.000000" stroke="none" 
	d="
M518.480469,412.444550 
	C518.102539,412.581970 517.729553,412.523315 517.175415,412.236450 
	C516.994385,412.008209 517.006775,411.993805 517.303101,411.995117 
	C517.792786,411.998657 517.986145,412.000854 518.179443,412.003082 
	C518.179443,412.003082 518.485413,412.248474 518.480469,412.444550 
z"/>
<path fill="#0B8EC0" opacity="1.000000" stroke="none" 
	d="
M518.144409,411.729248 
	C517.986145,412.000854 517.792786,411.998657 517.309692,411.989075 
	C517.055176,411.766144 517.090332,411.550568 517.235474,411.024200 
	C517.600098,410.960724 517.854736,411.208069 518.144409,411.729248 
z"/>
<path fill="#0DB1F0" opacity="1.000000" stroke="none" 
	d="
M193.658676,333.560059 
	C193.800476,333.654175 193.368378,333.780060 193.308990,333.728394 
	C193.249619,333.676758 193.516876,333.465942 193.658676,333.560059 
z"/>
<path fill="#1E4659" opacity="1.000000" stroke="none" 
	d="
M245.126160,380.657562 
	C244.901703,380.701538 244.609314,380.461853 244.258881,379.934082 
	C244.486618,379.888641 244.772415,380.131287 245.126160,380.657562 
z"/>
<path fill="#176785" opacity="1.000000" stroke="none" 
	d="
M353.270721,382.959473 
	C353.087738,382.673035 353.225647,382.450958 353.620178,382.189728 
	C353.886841,382.452454 353.791779,382.743591 353.270721,382.959473 
z"/>
<path fill="#DBE9EF" opacity="1.000000" stroke="none" 
	d="
M413.260681,333.257874 
	C413.385498,325.610291 413.417755,326.043640 420.784454,325.494995 
	C426.715271,325.053345 431.237488,325.760986 432.886902,332.696472 
	C426.507477,333.188171 420.063202,333.326599 413.260681,333.257874 
z"/>
<path fill="#069FD8" opacity="1.000000" stroke="none" 
	d="
M316.768921,417.723267 
	C316.209778,417.979706 315.472565,417.991699 314.365906,418.002869 
	C314.861237,417.827606 315.726044,417.653198 316.768921,417.723267 
z"/>
<path fill="#0AA9E3" opacity="1.000000" stroke="none" 
	d="
M310.389801,421.091187 
	C309.585358,421.050446 308.780487,420.969788 307.975586,420.889099 
	C308.009277,420.684143 308.042969,420.479187 308.076660,420.274231 
	C308.696716,420.415924 309.316742,420.557648 310.199921,420.894104 
	C310.463074,421.088837 310.389374,421.051208 310.389801,421.091187 
z"/>
<path fill="#10769C" opacity="1.000000" stroke="none" 
	d="
M506.542542,398.472443 
	C506.569855,398.521027 506.515198,398.423859 506.542542,398.472443 
z"/>
<path fill="#10769C" opacity="1.000000" stroke="none" 
	d="
M507.527710,400.539856 
	C507.479797,400.566742 507.575592,400.513000 507.527710,400.539856 
z"/>
<path fill="#145E7B" opacity="1.000000" stroke="none" 
	d="
M368.014374,385.431580 
	C369.111450,384.348450 370.231262,383.091370 371.346924,383.095032 
	C382.345825,383.131195 393.344116,383.372864 404.341766,383.595367 
	C404.525421,383.599091 404.699188,384.090942 404.923523,384.689087 
	C394.009735,391.081818 382.145905,386.697601 370.761017,387.881897 
	C369.932068,387.968109 368.947449,386.557434 368.014374,385.431580 
z"/>
<path fill="#0D7FA9" opacity="1.000000" stroke="none" 
	d="
M212.457489,401.528137 
	C212.427765,401.476898 212.487198,401.579376 212.457489,401.528137 
z"/>
<path fill="#0D7FA9" opacity="1.000000" stroke="none" 
	d="
M214.993439,403.005035 
	C214.874207,402.872986 214.761246,402.735962 214.648285,402.598907 
	C214.730835,402.643250 214.813385,402.687592 214.952576,402.859863 
	C215.009216,402.987823 214.999695,403.000031 214.993439,403.005035 
z"/>
</svg>